<svg id="Layer_1" data-name="Layer 1" xmlns="http://www.w3.org/2000/svg" viewBox="0 0 345.64 445.27"><defs><style>.cls-1{fill:#fff;}.cls-2{fill:#9900f8;}</style></defs><path class="cls-1" d="M395.64,360.84c-2.67-10-1-15.24,0-17.66,11.29-26.45,87.74-41.1,118.55-1.14,19.16,24.86,18.06,67.46-1.38,82.09C483.38,446.26,408,407.24,395.64,360.84Z" transform="translate(-371.31 -317.36)"/><path class="cls-1" d="M395.64,383.31c35.66,46.39,62.71,55.75,81.86,54.12,16-1.37,28.35-10.54,37.15-3.9,10.68,8.06,10,34.87-2.3,48.84-22.16,25.1-92.18,20.16-117.17-21.79C375.57,427.67,393.36,388.18,395.64,383.31Z" transform="translate(-371.31 -317.36)"/><path class="cls-1" d="M395.64,474.57c8-6.42,42.69,43.57,77.73,33.71,14.1-4,19.05-15,42.65-20.87,11-2.7,22.73-5.6,31.87-.91,24.59,12.59,30.66,80.28,0,102.26-32.22,23.12-87-17.22-96.3-24.07C407.27,532.05,388.25,480.52,395.64,474.57Z" transform="translate(-371.31 -317.36)"/><path class="cls-1" d="M396.56,515.16c16.89-2.59,28.63,73.67,81.63,85.76,20.17,4.6,34.29-2.85,36.23,1.83,4.82,11.69-74.25,80.39-116.95,57.33C351.29,635.13,376.23,518.27,396.56,515.16Z" transform="translate(-371.31 -317.36)"/><path class="cls-1" d="M505.4,634.24C485.65,629,464,682.51,428.66,677.65c-16.31-2.23-22.64-15.11-32.1-11.31-13.64,5.48-19.25,39.71-7,61.45,19.22,34.2,88.7,48.47,121.69,13.76S525.64,639.67,505.4,634.24Z" transform="translate(-371.31 -317.36)"/><path class="cls-1" d="M558.9,485c-3.45,4,26,23,25.38,54.12-.61,33.15-34.61,47.38-29.66,61.14,8.45,23.52,122,22.12,132.08-11.31C698.43,549.94,566,476.71,558.9,485Z" transform="translate(-371.31 -317.36)"/><path class="cls-1" d="M567.61,473.88c.17,9.33,42.22,3.57,79.8,37.15,27.3,24.4,29.83,49.54,39.9,48.15,15.46-2.12,34.75-64.84,8.25-96.3C660.57,421.32,567.37,460,567.61,473.88Z" transform="translate(-371.31 -317.36)"/><path class="cls-1" d="M575.87,449.12c16.07,8.19,38.2-28.76,74.75-22,21.2,3.91,27,18.79,37.15,15.13,18.32-6.6,31.37-66.5-.46-97.68-25.92-25.39-70.67-21-96.77.46C552.85,376.07,557.75,439.88,575.87,449.12Z" transform="translate(-371.31 -317.36)"/><path class="cls-1" d="M568.07,617.88c1.93-3.85,35,20.66,73.84,9.63,26.66-7.57,35.75-26.15,46.31-21.55,14.92,6.5,19,53.25,0,67.41C656.24,697.22,564.83,624.35,568.07,617.88Z" transform="translate(-371.31 -317.36)"/><path class="cls-1" d="M567.61,639c14.49-4.89,30.18,45.46,71.09,48.61,23.17,1.78,35.55-13,47.23-5,13.37,9.14,14.11,40.15.92,58.24-20.35,27.91-77.3,29.84-108.23,1.37C542.56,709,552.38,644.12,567.61,639Z" transform="translate(-371.31 -317.36)"/><path class="cls-2" d="M403.9,360.84c-2.67-10-1-15.24,0-17.66,11.3-26.45,87.74-41.1,118.55-1.14,19.16,24.86,18.07,67.46-1.38,82.09C491.65,446.26,416.27,407.24,403.9,360.84Z" transform="translate(-371.31 -317.36)"/><path class="cls-2" d="M403.9,383.31c35.67,46.39,62.71,55.75,81.86,54.12,16-1.37,28.35-10.54,37.15-3.9,10.68,8.06,10,34.87-2.29,48.84-22.17,25.1-92.19,20.16-117.18-21.79C383.84,427.67,401.62,388.18,403.9,383.31Z" transform="translate(-371.31 -317.36)"/><path class="cls-2" d="M403.9,474.57c8-6.42,42.7,43.57,77.74,33.71,14.1-4,19.05-15,42.64-20.87,11-2.7,22.73-5.6,31.88-.91,24.59,12.59,30.65,80.28,0,102.26-32.23,23.12-87-17.22-96.31-24.07C415.54,532.05,396.52,480.52,403.9,474.57Z" transform="translate(-371.31 -317.36)"/><path class="cls-2" d="M404.82,515.16c16.89-2.59,28.64,73.67,81.63,85.76,20.17,4.6,34.3-2.85,36.23,1.83,4.83,11.69-74.24,80.39-116.94,57.33C359.56,635.13,384.49,518.27,404.82,515.16Z" transform="translate(-371.31 -317.36)"/><path class="cls-2" d="M513.66,634.24c-19.75-5.29-41.36,48.27-76.74,43.41-16.31-2.23-22.63-15.11-32.1-11.31-13.63,5.48-19.25,39.71-7,61.45C417,762,486.48,776.26,519.47,741.55S533.91,639.67,513.66,634.24Z" transform="translate(-371.31 -317.36)"/><path class="cls-2" d="M567.16,485c-3.44,4,26,23,25.38,54.12-.61,33.15-34.61,47.38-29.66,61.14,8.46,23.52,122,22.12,132.08-11.31C706.69,549.94,574.29,476.71,567.16,485Z" transform="translate(-371.31 -317.36)"/><path class="cls-2" d="M575.88,473.88c.16,9.33,42.22,3.57,79.79,37.15,27.3,24.4,29.83,49.54,39.9,48.15,15.46-2.12,34.75-64.84,8.26-96.3C668.84,421.32,575.64,460,575.88,473.88Z" transform="translate(-371.31 -317.36)"/><path class="cls-2" d="M584.13,449.12c16.07,8.19,38.21-28.76,74.75-22,21.2,3.91,27,18.79,37.15,15.13,18.33-6.6,31.37-66.5-.46-97.68-25.92-25.39-70.67-21-96.76.46C561.11,376.07,566,439.88,584.13,449.12Z" transform="translate(-371.31 -317.36)"/><path class="cls-2" d="M571.78,618.5c1.93-3.85,35,20.65,73.83,9.63,26.66-7.58,35.76-26.16,46.32-21.56,14.91,6.5,19,53.25,0,67.42C659.94,697.83,568.54,625,571.78,618.5Z" transform="translate(-371.31 -317.36)"/><path class="cls-2" d="M575.88,639c14.48-4.89,30.18,45.46,71.08,48.61,23.17,1.78,35.55-13,47.24-5,13.37,9.14,14.1,40.15.91,58.24-20.34,27.91-77.3,29.84-108.23,1.37C550.82,709,560.64,644.12,575.88,639Z" transform="translate(-371.31 -317.36)"/></svg>